<?xml version="1.0" encoding="utf-8"?>
<!-- Generator: Adobe Illustrator 27.0.1, SVG Export Plug-In . SVG Version: 6.00 Build 0)  -->
<svg version="1.1" id="Layer_1" xmlns="http://www.w3.org/2000/svg" xmlns:xlink="http://www.w3.org/1999/xlink" x="0px" y="0px"
	 viewBox="0 0 360.1 63.2" style="enable-background:new 0 0 360.1 63.2;" xml:space="preserve">
<style type="text/css">
	.st0{fill:#FFFFFF;}
</style>
<path class="st0" d="M85.2,35.7c-1.1-2.3-2.6-4-4.5-5.3c-0.6-0.5-1.1-0.8-1.4-1.1s-0.4-0.6-0.4-0.9c0-0.4,0.1-0.8,0.3-1.1
	c0.2-0.4,0.6-0.8,1.2-1.2c1.3-1.2,2.2-2.6,2.9-4.2c0.6-1.6,1-3.3,1-4.9c0-2.9-0.8-5.5-2.3-7.7s-3.8-3.9-6.9-5.1s-6.9-1.8-11.6-1.8
	S54.9,3,51.9,4.2c-2.5,1-4.4,2.3-5.9,3.9c-0.9-0.7-1.9-1.3-3.2-1.8c-2.3-0.9-5.1-1.4-8.6-1.4s-6.3,0.5-8.6,1.4s-3.9,2.2-5.1,3.8
	l-1.2-0.6c-1.3-0.5-3-0.8-5.1-0.8c-2,0-3.7,0.3-5.1,0.8c-1.3,0.5-2.3,1.3-3,2.2c-0.7,1-1,2.1-1,3.4c0,0.7,0.1,1.4,0.4,2.1
	s0.7,1.3,1.3,1.8c0.3,0.2,0.4,0.4,0.5,0.5s0.1,0.3,0.1,0.5c0,0.1-0.1,0.3-0.2,0.4s-0.3,0.3-0.6,0.5c-0.8,0.5-1.4,1.3-1.9,2.3
	S4,25.2,4,26.3c0,1.5,0.4,2.8,1.1,4c0.8,1.1,1.9,2,3.4,2.7s3.4,1,5.6,1c1,0,1.9-0.1,2.8-0.2c0,0.4-0.1,0.8-0.1,1.1
	c0,2.5,0.6,4.8,1.9,6.7s3.2,3.4,5.8,4.5s5.7,1.6,9.5,1.7c2.4,0,4.5-0.3,6.4-0.7c0.4,1.8,1.1,3.4,2.1,4.9c1.8,2.6,4.4,4.6,7.8,6.1
	c3.5,1.5,7.8,2.2,12.8,2.3c5.1-0.1,9.4-0.8,12.9-2.3c3.4-1.5,6.1-3.5,7.8-6.1c1.8-2.6,2.6-5.6,2.6-9.1C86.8,40.3,86.3,38,85.2,35.7
	L85.2,35.7z M13.1,15.6c0.3-0.3,0.6-0.4,1.1-0.4s0.9,0.1,1.1,0.4c0.3,0.3,0.4,0.6,0.4,1c0,0.3-0.1,0.5-0.2,0.7s-0.3,0.4-0.5,0.5
	S14.5,18,14.1,18c-0.3,0-0.6-0.1-0.8-0.2s-0.4-0.3-0.5-0.5s-0.2-0.5-0.2-0.7C12.8,16.2,12.9,15.8,13.1,15.6z M15.6,26.7
	c-0.3,0.3-0.7,0.4-1.3,0.4s-1-0.1-1.3-0.4s-0.4-0.7-0.4-1.1c0-0.5,0.1-0.9,0.4-1.1c0.3-0.3,0.7-0.4,1.3-0.4s1,0.1,1.3,0.4
	s0.4,0.6,0.4,1.1C16.1,26,15.9,26.4,15.6,26.7z M32.3,16.7c0.4-0.4,1.1-0.6,1.9-0.6c0.9,0,1.5,0.2,1.9,0.6s0.6,1,0.6,1.8
	c0,0.5-0.1,0.9-0.3,1.3s-0.5,0.6-0.8,0.8c-0.4,0.2-0.9,0.3-1.5,0.3s-1-0.1-1.4-0.3s-0.7-0.5-0.9-0.8c-0.2-0.4-0.3-0.8-0.3-1.3
	C31.7,17.7,31.9,17.2,32.3,16.7z M36.5,35.5c-0.5,0.5-1.2,0.7-2.2,0.7s-1.7-0.2-2.2-0.7s-0.7-1.1-0.7-1.9c0-0.9,0.2-1.5,0.7-1.9
	s1.2-0.6,2.2-0.6s1.7,0.2,2.2,0.6s0.7,1.1,0.7,1.9S37,35,36.5,35.5z M60.9,18.4c0.6-0.6,1.5-0.9,2.6-0.9c1.2,0,2,0.3,2.6,0.9
	s0.9,1.4,0.9,2.4c0,0.6-0.1,1.2-0.4,1.7s-0.6,0.9-1.1,1.1c-0.5,0.3-1.2,0.4-2,0.4s-1.4-0.1-1.9-0.4s-0.9-0.6-1.2-1.1
	S60,21.4,60,20.8C60,19.7,60.3,18.9,60.9,18.4L60.9,18.4z M66.5,43.8c-0.7,0.6-1.7,1-3,1s-2.4-0.3-3-1c-0.7-0.6-1-1.5-1-2.6
	c0-1.2,0.3-2,1-2.6s1.7-0.9,3-0.9c1.3,0,2.4,0.3,3,0.9c0.7,0.6,1,1.5,1,2.6S67.2,43.2,66.5,43.8z"/>
<g>
	<path class="st0" d="M104.6,45.5c-0.7,0-1.3-0.1-1.7-0.4c-0.5-0.3-0.9-0.7-1.2-1.3c-0.3-0.6-0.4-1.4-0.4-2.5c0-0.7,0-1.6,0-2.7
		c0-1.1,0-2.3,0-3.7c0-1.3,0-2.7,0-4.1s0-2.7,0-3.9c0-1.2,0-2.3,0-3.2c0-0.9,0-1.5,0-1.9c0-0.5-0.1-0.8-0.2-0.9
		c-0.1-0.2-0.4-0.3-0.9-0.3c-0.7,0-1.3,0-1.9,0s-1,0-1.2,0c-0.6,0-1.2-0.2-1.7-0.5s-0.7-1-0.7-1.9c0-0.6,0.1-1,0.3-1.4
		c0.2-0.4,0.7-0.7,1.3-0.9c0.7-0.2,1.6-0.4,2.9-0.5s3-0.1,5-0.1c2.1,0,3.8,0,5.1,0.1c1.3,0.1,2.2,0.2,2.9,0.5
		c0.7,0.2,1.1,0.5,1.3,0.9s0.3,0.8,0.3,1.4c0,1-0.2,1.6-0.7,1.9s-1,0.5-1.7,0.5c-0.2,0-0.6,0-1.2,0s-1.2,0-1.9,0
		c-0.4,0-0.7,0.1-0.9,0.3c-0.2,0.2-0.3,0.5-0.3,0.9s0,1,0,1.9s0,2,0,3.2s0,2.5,0,3.9s0,2.7,0,4.1s0,2.6,0,3.7c0,1.1,0,2,0,2.7
		c0,1-0.1,1.9-0.4,2.5s-0.6,1.1-1.1,1.3C105.8,45.4,105.2,45.5,104.6,45.5z"/>
	<path class="st0" d="M133.4,45.7c-2.6,0-5-0.6-7.1-1.9c-2.1-1.2-3.9-3-5.1-5.3c-1.3-2.3-1.9-5.1-1.9-8.3s0.6-5.9,1.9-8.1
		s3-3.9,5.1-5.1s4.5-1.7,7.2-1.7c2.6,0,5,0.6,7.2,1.7c2.2,1.2,3.9,2.8,5.2,5s1.9,4.9,1.9,8.1s-0.6,5.9-1.9,8.3
		c-1.3,2.3-3,4.1-5.2,5.4C138.5,45,136.1,45.7,133.4,45.7z M133.4,39.9c1.6,0,2.9-0.4,4.1-1.2c1.2-0.8,2.1-1.9,2.7-3.4
		c0.7-1.5,1-3.2,1-5.1c0-2-0.3-3.6-1-5s-1.6-2.4-2.8-3.1s-2.5-1.1-4-1.1s-2.8,0.4-4,1.1s-2,1.8-2.7,3.1c-0.6,1.4-1,3-1,5
		c0,1.9,0.3,3.6,0.9,5.1s1.5,2.6,2.7,3.4C130.5,39.5,131.9,39.9,133.4,39.9z"/>
	<path class="st0" d="M159.3,45.5c-1,0-1.8-0.2-2.3-0.7c-0.6-0.5-1-1.3-1.2-2.6c-0.2-1.9-0.3-4-0.4-6.1c-0.1-2.1-0.1-4-0.1-5.7
		s0-3.6,0.1-5.7s0.2-4.1,0.5-6.2c0.2-0.8,0.5-1.5,0.9-1.9c0.4-0.5,1.2-0.8,2.2-1s2.4-0.3,4.2-0.3c2.6,0,4.7,0.3,6.4,1
		c1.7,0.7,3,1.7,3.9,3.1s1.3,3,1.3,5.1c0,2-0.4,3.7-1.3,5.1c-0.8,1.4-2.1,2.5-3.7,3.3c-1.6,0.8-3.5,1.2-5.8,1.2c-0.4,0-0.6,0-0.8,0
		s-0.4,0-0.6,0c-0.3,0-0.6,0.1-0.7,0.4c-0.1,0.2-0.2,0.5-0.2,0.9c0,0.8,0,1.5,0,2.2s0.1,1.4,0.1,2.2s0,1.8,0,2.9
		c0,0.5-0.1,1-0.2,1.5c-0.2,0.5-0.4,0.8-0.8,1.1S160,45.5,159.3,45.5z M162.5,29.2c2.3,0,3.9-0.4,4.9-1.1s1.5-1.9,1.5-3.5
		s-0.5-2.6-1.5-3.2s-2.6-0.9-4.9-0.9c-0.3,0-0.6,0-0.7,0.1c-0.2,0.1-0.3,0.3-0.4,0.6c-0.1,0.3-0.2,0.8-0.2,1.5s0,1.7,0,2.9
		c0,1.1,0,1.9,0.1,2.3c0.1,0.5,0.2,0.8,0.4,0.9S162.1,29.2,162.5,29.2z"/>
	<path class="st0" d="M194.9,45.7c-2.7,0-4.9-0.4-6.7-1.2s-3.2-1.8-4.1-3.2c-0.9-1.3-1.4-2.9-1.4-4.8c0-1.3,0.3-2.5,0.9-3.7
		c0.6-1.2,1.4-2.1,2.4-2.8c0.3-0.2,0.6-0.4,0.7-0.6c0.1-0.1,0.2-0.3,0.2-0.4c0-0.2,0-0.4-0.1-0.6s-0.3-0.4-0.6-0.6
		c-0.7-0.6-1.2-1.3-1.5-2.2c-0.3-0.9-0.5-1.7-0.5-2.6c0-1.5,0.4-2.9,1.2-4s1.9-2,3.5-2.7c1.6-0.6,3.6-1,6-1s4.3,0.3,5.9,1
		c1.6,0.6,2.8,1.5,3.5,2.7c0.8,1.1,1.2,2.5,1.2,4c0,0.9-0.2,1.8-0.5,2.6c-0.3,0.9-0.9,1.6-1.6,2.2c-0.3,0.2-0.5,0.5-0.6,0.6
		s-0.1,0.4-0.1,0.6s0,0.3,0.2,0.4c0.1,0.1,0.4,0.3,0.7,0.6c1,0.6,1.9,1.6,2.5,2.8c0.6,1.2,0.9,2.4,0.9,3.7c0,1.8-0.5,3.4-1.4,4.8
		c-0.9,1.4-2.3,2.4-4.1,3.2S197.5,45.6,194.9,45.7z M194.9,38c0.8,0,1.4-0.2,1.8-0.6c0.4-0.4,0.6-0.9,0.6-1.6c0-0.7-0.2-1.2-0.6-1.6
		s-1-0.6-1.8-0.6s-1.5,0.2-1.9,0.6c-0.4,0.4-0.6,0.9-0.6,1.6c0,0.7,0.2,1.2,0.6,1.6C193.5,37.8,194.1,38,194.9,38z M194.9,26.8
		c0.4,0,0.8-0.1,1.1-0.3c0.3-0.2,0.5-0.4,0.7-0.7c0.2-0.3,0.3-0.6,0.3-1c0-0.6-0.2-1.1-0.6-1.4c-0.4-0.3-0.9-0.5-1.5-0.5
		c-0.7,0-1.2,0.2-1.6,0.5c-0.4,0.3-0.6,0.8-0.6,1.4c0,0.4,0.1,0.7,0.3,1s0.4,0.5,0.8,0.7C194.1,26.7,194.5,26.8,194.9,26.8z"/>
	<path class="st0" d="M218.6,45.4c-1.3,0-2.4-0.4-3.1-1.2c-0.8-0.8-1.2-1.9-1.2-3.2s0.4-2.3,1.2-3.1s1.8-1.2,3.1-1.2
		s2.4,0.4,3.1,1.2c0.8,0.8,1.1,1.8,1.1,3.1s-0.4,2.3-1.1,3.2C221,45,219.9,45.4,218.6,45.4z"/>
	<path class="st0" d="M234.7,45.6c-1.2,0-2.1-0.2-2.7-0.7c-0.6-0.4-0.9-1.1-0.9-1.9c0-0.5,0.1-1,0.3-1.3s0.6-0.6,1-0.8
		s0.9-0.3,1.4-0.4c2.4-0.2,4.2-0.7,5.5-1.4s2-1.6,2-2.8c0-0.7-0.2-1.3-0.7-1.9s-1.1-1.1-1.8-1.6s-1.5-1-2.3-1.5s-1.6-1.1-2.3-1.8
		c-0.7-0.7-1.3-1.5-1.8-2.4s-0.7-2-0.7-3.2c0-1.4,0.3-2.6,0.9-3.7c0.6-1.1,1.4-2,2.5-2.7s2.3-1.3,3.6-1.7c1.3-0.4,2.7-0.6,4.1-0.6
		c1.3,0,2.2,0.2,2.8,0.6s0.9,1,0.9,1.9c0,0.5-0.1,0.9-0.3,1.3s-0.5,0.6-0.8,0.8c-0.4,0.2-0.8,0.3-1.3,0.3c-2.1,0.1-3.7,0.5-4.7,1.1
		s-1.5,1.3-1.5,2.2c0,0.6,0.2,1.2,0.7,1.7s1.1,1,1.8,1.5c0.8,0.5,1.5,1,2.3,1.5s1.6,1.2,2.3,1.8c0.8,0.7,1.4,1.5,1.8,2.4
		c0.5,0.9,0.7,2,0.7,3.3c0,1.6-0.4,3-1.1,4.3c-0.7,1.2-1.7,2.2-2.9,3s-2.6,1.4-4.1,1.8C237.9,45.4,236.4,45.6,234.7,45.6z"/>
	<path class="st0" d="M260.2,45.5c-1,0-1.8-0.2-2.3-0.7c-0.6-0.5-1-1.3-1.2-2.6c-0.2-1.9-0.3-4-0.4-6.1s-0.1-4-0.1-5.7
		s0-3.6,0.1-5.7s0.2-4.1,0.5-6.2c0.2-0.8,0.5-1.5,0.9-1.9c0.4-0.5,1.2-0.8,2.2-1s2.4-0.3,4.2-0.3c2.6,0,4.7,0.3,6.4,1
		c1.7,0.7,3,1.7,3.9,3.1s1.3,3,1.3,5.1c0,2-0.4,3.7-1.3,5.1c-0.8,1.4-2.1,2.5-3.7,3.3c-1.6,0.8-3.5,1.2-5.8,1.2c-0.4,0-0.6,0-0.8,0
		c-0.2,0-0.4,0-0.6,0c-0.3,0-0.6,0.1-0.7,0.4c-0.1,0.2-0.2,0.5-0.2,0.9c0,0.8,0,1.5,0,2.2s0.1,1.4,0.1,2.2s0,1.8,0,2.9
		c0,0.5-0.1,1-0.2,1.5c-0.2,0.5-0.4,0.8-0.8,1.1S260.9,45.5,260.2,45.5z M263.4,29.2c2.3,0,3.9-0.4,4.9-1.1s1.5-1.9,1.5-3.5
		s-0.5-2.6-1.5-3.2s-2.6-0.9-4.9-0.9c-0.3,0-0.6,0-0.7,0.1c-0.2,0.1-0.3,0.3-0.4,0.6c-0.1,0.3-0.2,0.8-0.2,1.5s0,1.7,0,2.9
		c0,1.1,0,1.9,0.1,2.3c0.1,0.5,0.2,0.8,0.4,0.9C262.7,29.2,263,29.2,263.4,29.2z"/>
	<path class="st0" d="M282.4,45.6c-0.7,0-1.3-0.1-1.7-0.4c-0.4-0.2-0.8-0.6-1-1.1s-0.3-1.1-0.3-1.8c0-1,0.1-2.3,0.4-4
		c0.3-1.6,0.6-3.4,1.1-5.4c0.4-1.9,1-3.9,1.5-5.8c0.7-2.4,1.4-4.3,2-5.8s1.3-2.7,1.9-3.6s1.3-1.5,2-1.9s1.5-0.5,2.4-0.5
		c1,0,1.8,0.2,2.5,0.6c0.7,0.4,1.4,1,2,1.9s1.2,2.1,1.8,3.6c0.6,1.5,1.2,3.4,1.9,5.7c0.6,2,1.2,3.9,1.6,5.9s0.8,3.8,1.1,5.4
		c0.3,1.6,0.4,2.9,0.4,3.9c0,0.7-0.1,1.3-0.3,1.8c-0.2,0.5-0.5,0.9-1,1.1c-0.4,0.2-1,0.3-1.7,0.3c-0.6,0-1-0.1-1.4-0.3
		s-0.7-0.6-1-1.1s-0.5-1.1-0.6-1.8c-0.2-1.3-0.5-2.3-0.6-3.1c-0.2-0.8-0.3-1.3-0.4-1.7s-0.3-0.7-0.4-0.9s-0.3-0.4-0.5-0.5
		s-0.5-0.2-1-0.2s-1.3-0.1-2.5-0.1c-1.1,0-1.9,0-2.4,0.1c-0.5,0-0.9,0.1-1.1,0.3c-0.2,0.1-0.3,0.3-0.5,0.6s-0.3,0.7-0.4,1
		c-0.1,0.4-0.3,0.9-0.4,1.6c-0.1,0.7-0.3,1.7-0.6,3c-0.2,0.7-0.4,1.3-0.6,1.8c-0.3,0.5-0.6,0.8-0.9,1.1S282.9,45.6,282.4,45.6z
		 M290.8,31.2c0.4,0,0.8,0,1.2,0s0.7,0,1,0c0.4,0,0.6-0.1,0.7-0.2s0.2-0.3,0.2-0.6c0-0.5-0.1-1.2-0.3-1.9s-0.5-1.6-0.7-2.5
		c-0.4-1.4-0.7-2.4-1-3c-0.2-0.7-0.5-1.1-0.6-1.3c-0.2-0.2-0.4-0.3-0.6-0.3s-0.4,0.1-0.5,0.3c-0.2,0.2-0.4,0.6-0.6,1.3
		c-0.2,0.6-0.5,1.6-0.9,3c-0.2,0.8-0.4,1.6-0.7,2.4c-0.2,0.8-0.3,1.5-0.3,2c0,0.3,0.1,0.5,0.2,0.6s0.3,0.2,0.7,0.2
		c0.4,0,0.8,0,1.2,0C290,31.2,290.4,31.2,290.8,31.2z"/>
	<path class="st0" d="M321.8,45.7c-1.5,0-3.1-0.3-4.7-0.9c-1.7-0.6-3.2-1.5-4.6-2.8s-2.6-2.8-3.5-4.7s-1.3-4.1-1.3-6.7
		s0.5-4.9,1.4-6.8s2.1-3.5,3.5-4.7c1.5-1.2,3-2.2,4.7-2.8c1.7-0.6,3.2-0.9,4.7-0.9c1.3,0,2.1,0.2,2.7,0.6c0.5,0.4,0.8,1,0.8,1.7
		c0,0.9-0.3,1.5-0.8,1.9c-0.6,0.4-1.3,0.7-2.2,0.9c-0.9,0.2-1.9,0.6-2.9,1s-2.1,1.1-3,2.1c-1.7,1.7-2.5,4-2.5,6.8
		c0,2.7,0.8,4.9,2.5,6.6c0.8,0.8,1.6,1.4,2.4,1.8c0.8,0.4,1.6,0.7,2.3,0.9c0.7,0.2,1.4,0.4,2,0.6c0.6,0.2,1.1,0.5,1.4,0.9
		s0.5,1,0.5,1.8s-0.3,1.5-0.8,2C323.7,45.4,322.9,45.7,321.8,45.7z"/>
	<path class="st0" d="M342.1,45.6c-1.8,0-3.2-0.1-4.2-0.2c-1-0.2-1.8-0.4-2.3-0.7s-0.9-0.7-1.1-1.1c-0.2-0.3-0.3-1.2-0.4-2.4
		c-0.1-1.3-0.2-2.9-0.3-4.8c-0.1-1.9-0.1-3.9-0.1-6.1c0-2.3,0-4.4,0.1-6.3c0.1-1.9,0.2-3.4,0.3-4.6c0.1-1.2,0.3-2,0.4-2.3
		c0.2-0.5,0.6-0.8,1.1-1.1c0.5-0.2,1.2-0.4,2.2-0.5s2.3-0.1,4-0.1c2.5,0,4.5,0.1,5.9,0.3s2.4,0.5,2.9,0.9c0.6,0.4,0.9,1,0.9,1.8
		s-0.2,1.4-0.6,1.9c-0.4,0.4-1.1,0.6-2.1,0.6c-0.6,0-1.4,0-2.3,0s-1.8,0-2.7-0.1c-0.9,0-1.7,0-2.5,0c-0.5,0-0.9,0.1-1.1,0.2
		s-0.3,0.5-0.3,1.1s-0.1,1.2-0.1,1.9s0,1.2,0,1.8c0,0.6,0.1,0.9,0.3,1.1c0.2,0.1,0.6,0.2,1,0.2c0.9,0,1.7,0,2.3,0c0.7,0,1.3,0,2,0
		s1.4,0,2.2,0c1.2,0,2.1,0.2,2.5,0.7c0.4,0.4,0.6,1.1,0.6,2s-0.2,1.6-0.7,2s-1.2,0.7-2.3,0.7c-1,0-2.1,0-3.4,0s-2.5,0-3.7,0
		c-0.6,0-0.8,0.3-0.8,0.8c0,0.7,0,1.4,0,2c0,0.7,0,1.3,0,1.9c0,0.6,0,1.1,0,1.5s0,0.6,0,0.7c0.1,0.4,0.2,0.7,0.3,0.9
		c0.1,0.2,0.4,0.3,0.8,0.3c1.2,0,2.4,0,3.5,0s2,0,2.8,0s1.3,0,1.6,0c0.6,0,1.2,0.2,1.7,0.5s0.7,0.9,0.7,1.7c0,0.5-0.1,1-0.4,1.4
		c-0.2,0.4-0.7,0.7-1.3,1s-1.6,0.5-2.7,0.6C345.5,45.5,344,45.6,342.1,45.6z"/>
</g>
</svg>
